# File produced by Open Asset Import Library (http://www.assimp.sf.net)
# (assimp v3.1.6393133)

mtllib %E6%97%A0%E6%A0%87%E9%A2%98.mtl

# vertex positions
v -1.240534 0.811330 4.260229
v -1.249905 0.745999 4.260229
v 5.532609 -0.226914 4.260229
v 5.541981 -0.161583 4.260229
v -1.240534 0.811330 -4.260229
v 5.541981 -0.161583 -4.260229
v -1.249905 0.745999 -4.260229
v 5.532609 -0.226914 -4.260229
v -1.431259 1.002916 -4.187004
v -1.509175 0.436867 -4.187004
v 5.650200 -0.548614 -4.187004
v 5.728117 0.017435 -4.187004
v -1.431259 1.002916 -4.561984
v 5.728117 0.017435 -4.561984
v -1.509175 0.436867 -4.561984
v 5.650200 -0.548614 -4.561984
v -1.401571 4.585673 4.449561
v -1.401571 0.383620 4.449561
v -1.187977 0.383620 4.449561
v -1.187977 4.585673 4.449561
v -1.401571 4.585673 4.235967
v -1.187977 4.585673 4.235967
v -1.401571 0.383620 4.235967
v -1.187977 0.383620 4.235967
v 1.995447 4.365869 4.449561
v 1.995447 0.163816 4.449561
v 2.209040 0.163816 4.449561
v 2.209040 4.365869 4.449561
v 1.995447 4.365869 4.235967
v 2.209040 4.365869 4.235967
v 1.995447 0.163816 4.235967
v 2.209040 0.163816 4.235967
v 5.419159 4.162345 4.449561
v 5.419159 -0.039707 4.449561
v 5.632752 -0.039707 4.449561
v 5.632752 4.162345 4.449561
v 5.419159 4.162345 4.235967
v 5.632752 4.162345 4.235967
v 5.419159 -0.039707 4.235967
v 5.632752 -0.039707 4.235967
v -1.431259 1.002916 4.575127
v -1.509175 0.436867 4.575127
v 5.650200 -0.548614 4.575127
v 5.728117 0.017435 4.575127
v -1.431259 1.002916 4.200147
v 5.728117 0.017435 4.200147
v -1.509175 0.436867 4.200147
v 5.650200 -0.548614 4.200147
v -1.465044 4.306694 4.541240
v -1.492581 4.074561 4.541240
v 5.683987 3.223252 4.541240
v 5.711522 3.455385 4.541240
v -1.465044 4.306694 4.166260
v 5.711522 3.455385 4.166260
v -1.492581 4.074561 4.166260
v 5.683987 3.223252 4.166260
v -1.445159 5.071847 4.541240
v -1.512467 4.504440 4.541240
v 5.664101 3.653130 4.541240
v 5.731409 4.220538 4.541240
v -1.445159 5.071847 4.166260
v 5.731409 4.220538 4.166260
v -1.512467 4.504440 4.166260
v 5.664101 3.653130 4.166260
v -1.465044 4.306694 -4.196904
v -1.492581 4.074561 -4.196904
v 5.683987 3.223252 -4.196904
v 5.711522 3.455385 -4.196904
v -1.465044 4.306694 -4.571883
v 5.711522 3.455385 -4.571883
v -1.492581 4.074561 -4.571883
v 5.683987 3.223252 -4.571883
v -1.445159 5.071847 -4.196904
v -1.512467 4.504440 -4.196904
v 5.664101 3.653130 -4.196904
v 5.731409 4.220538 -4.196904
v -1.445159 5.071847 -4.571883
v 5.731409 4.220538 -4.571883
v -1.512467 4.504440 -4.571883
v 5.664101 3.653130 -4.571883
v -1.401571 4.585673 -4.288582
v -1.401571 0.383620 -4.288582
v -1.187977 0.383620 -4.288582
v -1.187977 4.585673 -4.288582
v -1.401571 4.585673 -4.502175
v -1.187977 4.585673 -4.502175
v -1.401571 0.383620 -4.502175
v -1.187977 0.383620 -4.502175
v 1.995447 4.365869 -4.288582
v 1.995447 0.163816 -4.288582
v 2.209040 0.163816 -4.288582
v 2.209040 4.365869 -4.288582
v 1.995447 4.365869 -4.502175
v 2.209040 4.365869 -4.502175
v 1.995447 0.163816 -4.502175
v 2.209040 0.163816 -4.502175
v 5.419159 4.162345 -4.288582
v 5.419159 -0.039707 -4.288582
v 5.632752 -0.039707 -4.288582
v 5.632752 4.162345 -4.288582
v 5.419159 4.162345 -4.502175
v 5.632752 4.162345 -4.502175
v 5.419159 -0.039707 -4.502175
v 5.632752 -0.039707 -4.502175

# UV coordinates
vt 0.600646 0.914980
vt 0.600567 0.912737
vt 0.736399 0.827324
vt 0.736604 0.830162
vt 0.829364 0.943039
vt 0.981461 0.885735
vt 0.829195 0.941245
vt 0.981168 0.883579
vt 0.412796 0.739511
vt 0.411363 0.723390
vt 0.577716 0.659221
vt 0.580297 0.678813
vt 0.421068 0.740467
vt 0.588637 0.680661
vt 0.419615 0.724486
vt 0.586045 0.661276
vt 0.000000 0.999921
vt 0.029321 0.007359
vt 0.050835 0.000000
vt 0.021676 0.999831
vt 0.049043 1.000000
vt 0.070939 0.999912
vt 0.077334 0.013849
vt 0.099057 0.006585
vt 0.000000 0.999517
vt 0.022588 0.008745
vt 0.046931 0.000000
vt 0.024640 0.998968
vt 0.046516 1.000000
vt 0.071361 0.999459
vt 0.068039 0.016442
vt 0.092577 0.007825
vt 0.000000 0.999021
vt 0.013740 0.010520
vt 0.041787 0.000000
vt 0.028563 0.997907
vt 0.043184 1.000000
vt 0.071918 0.998904
vt 0.055849 0.019760
vt 0.084057 0.009416
vt 0.423420 0.859791
vt 0.422869 0.840708
vt 0.561177 0.749420
vt 0.562813 0.773961
vt 0.435907 0.861234
vt 0.577131 0.777133
vt 0.435302 0.842359
vt 0.575426 0.752935
vt 0.428768 0.571644
vt 0.428623 0.564143
vt 0.557496 0.521750
vt 0.558016 0.531576
vt 0.440377 0.571767
vt 0.571377 0.532345
vt 0.440211 0.564351
vt 0.570831 0.522665
vt 0.431836 0.641826
vt 0.431499 0.624195
vt 0.554468 0.587981
vt 0.555684 0.611134
vt 0.442964 0.641670
vt 0.568501 0.611395
vt 0.442580 0.624242
vt 0.567225 0.588591
vt 0.367754 0.464790
vt 0.366996 0.454603
vt 0.619058 0.402353
vt 0.620470 0.414875
vt 0.380182 0.464922
vt 0.633004 0.415596
vt 0.379412 0.454826
vt 0.631584 0.403212
vt 0.381385 0.522798
vt 0.379720 0.500332
vt 0.605908 0.457464
vt 0.609012 0.485118
vt 0.392561 0.522641
vt 0.620281 0.485348
vt 0.390870 0.500379
vt 0.617159 0.458001
vt 0.000000 0.999938
vt 0.001895 0.005813
vt 0.034848 0.000000
vt 0.033400 0.999868
vt 0.038567 1.000000
vt 0.072018 0.999930
vt 0.039929 0.010954
vt 0.072932 0.005200
vt 0.006031 0.999631
vt 0.000000 0.006724
vt 0.036270 0.000000
vt 0.042896 0.999213
vt 0.041601 1.000000
vt 0.078482 0.999587
vt 0.035073 0.012664
vt 0.071360 0.006016
vt 0.015819 0.999278
vt 0.000000 0.007817
vt 0.040358 0.000000
vt 0.056980 0.998459
vt 0.047680 1.000000
vt 0.088806 0.999192
vt 0.031432 0.014714
vt 0.071758 0.006994

# vertex normals
vn 0.000000 0.000000 1.000000
vn 0.141991 0.989868 0.000000
vn 0.000000 0.000000 -1.000000
vn -0.141991 -0.989868 0.000000
vn 0.989867 -0.141997 0.000000
vn -0.989869 0.141985 0.000000
vn 0.136363 0.990659 0.000000
vn -0.136363 -0.990659 0.000000
vn 0.990659 -0.136364 0.000000
vn -0.990659 0.136363 0.000000
vn 0.000000 1.000000 0.000000
vn 0.000000 -1.000000 0.000000
vn 1.000000 0.000000 0.000000
vn -1.000000 0.000000 0.000000
vn 0.117798 0.993038 0.000000
vn -0.117798 -0.993038 0.000000
vn 0.993038 -0.117794 0.000000
vn -0.993038 0.117798 0.000000
vn 0.993038 -0.117798 0.000000

# Mesh
g pCube4
usemtl initialShadingGroup
f 1/1/1 2/2/1 3/3/1
f 3/3/1 4/4/1 1/1/1
f 5/5/2 1/1/2 4/4/2
f 4/4/2 6/6/2 5/5/2
f 7/7/3 5/5/3 6/6/3
f 6/6/3 8/8/3 7/7/3
f 2/2/4 7/7/4 8/8/4
f 8/8/4 3/3/4 2/2/4
f 4/4/5 3/3/5 8/8/5
f 8/8/5 6/6/5 4/4/5
f 5/5/6 7/7/6 2/2/6
f 2/2/6 1/1/6 5/5/6

# Mesh
g pCube7
usemtl initialShadingGroup
f 9/9/1 10/10/1 11/11/1
f 11/11/1 12/12/1 9/9/1
f 13/13/7 9/9/7 12/12/7
f 12/12/7 14/14/7 13/13/7
f 15/15/3 13/13/3 14/14/3
f 14/14/3 16/16/3 15/15/3
f 10/10/8 15/15/8 16/16/8
f 16/16/8 11/11/8 10/10/8
f 12/12/9 11/11/9 16/16/9
f 16/16/9 14/14/9 12/12/9
f 13/13/10 15/15/10 10/10/10
f 10/10/10 9/9/10 13/13/10

# Mesh
g pCube8
usemtl initialShadingGroup
f 17/17/1 18/18/1 19/19/1
f 19/19/1 20/20/1 17/17/1
f 21/21/11 17/17/11 20/20/11
f 20/20/11 22/22/11 21/21/11
f 23/23/3 21/21/3 22/22/3
f 22/22/3 24/24/3 23/23/3
f 18/18/12 23/23/12 24/24/12
f 24/24/12 19/19/12 18/18/12
f 20/20/13 19/19/13 24/24/13
f 24/24/13 22/22/13 20/20/13
f 21/21/14 23/23/14 18/18/14
f 18/18/14 17/17/14 21/21/14

# Mesh
g pCube9
usemtl initialShadingGroup
f 25/25/1 26/26/1 27/27/1
f 27/27/1 28/28/1 25/25/1
f 29/29/11 25/25/11 28/28/11
f 28/28/11 30/30/11 29/29/11
f 31/31/3 29/29/3 30/30/3
f 30/30/3 32/32/3 31/31/3
f 26/26/12 31/31/12 32/32/12
f 32/32/12 27/27/12 26/26/12
f 28/28/13 27/27/13 32/32/13
f 32/32/13 30/30/13 28/28/13
f 29/29/14 31/31/14 26/26/14
f 26/26/14 25/25/14 29/29/14

# Mesh
g pCube10
usemtl initialShadingGroup
f 33/33/1 34/34/1 35/35/1
f 35/35/1 36/36/1 33/33/1
f 37/37/11 33/33/11 36/36/11
f 36/36/11 38/38/11 37/37/11
f 39/39/3 37/37/3 38/38/3
f 38/38/3 40/40/3 39/39/3
f 34/34/12 39/39/12 40/40/12
f 40/40/12 35/35/12 34/34/12
f 36/36/13 35/35/13 40/40/13
f 40/40/13 38/38/13 36/36/13
f 37/37/14 39/39/14 34/34/14
f 34/34/14 33/33/14 37/37/14

# Mesh
g pCube18
usemtl initialShadingGroup
f 41/41/1 42/42/1 43/43/1
f 43/43/1 44/44/1 41/41/1
f 45/45/7 41/41/7 44/44/7
f 44/44/7 46/46/7 45/45/7
f 47/47/3 45/45/3 46/46/3
f 46/46/3 48/48/3 47/47/3
f 42/42/8 47/47/8 48/48/8
f 48/48/8 43/43/8 42/42/8
f 44/44/9 43/43/9 48/48/9
f 48/48/9 46/46/9 44/44/9
f 45/45/10 47/47/10 42/42/10
f 42/42/10 41/41/10 45/45/10

# Mesh
g pCube19
usemtl initialShadingGroup
f 49/49/1 50/50/1 51/51/1
f 51/51/1 52/52/1 49/49/1
f 53/53/15 49/49/15 52/52/15
f 52/52/15 54/54/15 53/53/15
f 55/55/3 53/53/3 54/54/3
f 54/54/3 56/56/3 55/55/3
f 50/50/16 55/55/16 56/56/16
f 56/56/16 51/51/16 50/50/16
f 52/52/17 51/51/17 56/56/17
f 56/56/17 54/54/17 52/52/17
f 53/53/18 55/55/18 50/50/18
f 50/50/18 49/49/18 53/53/18

# Mesh
g pCube20
usemtl initialShadingGroup
f 57/57/1 58/58/1 59/59/1
f 59/59/1 60/60/1 57/57/1
f 61/61/15 57/57/15 60/60/15
f 60/60/15 62/62/15 61/61/15
f 63/63/3 61/61/3 62/62/3
f 62/62/3 64/64/3 63/63/3
f 58/58/16 63/63/16 64/64/16
f 64/64/16 59/59/16 58/58/16
f 60/60/19 59/59/19 64/64/19
f 64/64/19 62/62/19 60/60/19
f 61/61/18 63/63/18 58/58/18
f 58/58/18 57/57/18 61/61/18

# Mesh
g pCube21
usemtl initialShadingGroup
f 65/65/1 66/66/1 67/67/1
f 67/67/1 68/68/1 65/65/1
f 69/69/15 65/65/15 68/68/15
f 68/68/15 70/70/15 69/69/15
f 71/71/3 69/69/3 70/70/3
f 70/70/3 72/72/3 71/71/3
f 66/66/16 71/71/16 72/72/16
f 72/72/16 67/67/16 66/66/16
f 68/68/17 67/67/17 72/72/17
f 72/72/17 70/70/17 68/68/17
f 69/69/18 71/71/18 66/66/18
f 66/66/18 65/65/18 69/69/18

# Mesh
g pCube22
usemtl initialShadingGroup
f 73/73/1 74/74/1 75/75/1
f 75/75/1 76/76/1 73/73/1
f 77/77/15 73/73/15 76/76/15
f 76/76/15 78/78/15 77/77/15
f 79/79/3 77/77/3 78/78/3
f 78/78/3 80/80/3 79/79/3
f 74/74/16 79/79/16 80/80/16
f 80/80/16 75/75/16 74/74/16
f 76/76/19 75/75/19 80/80/19
f 80/80/19 78/78/19 76/76/19
f 77/77/18 79/79/18 74/74/18
f 74/74/18 73/73/18 77/77/18

# Mesh
g pCube23
usemtl initialShadingGroup
f 81/81/1 82/82/1 83/83/1
f 83/83/1 84/84/1 81/81/1
f 85/85/11 81/81/11 84/84/11
f 84/84/11 86/86/11 85/85/11
f 87/87/3 85/85/3 86/86/3
f 86/86/3 88/88/3 87/87/3
f 82/82/12 87/87/12 88/88/12
f 88/88/12 83/83/12 82/82/12
f 84/84/13 83/83/13 88/88/13
f 88/88/13 86/86/13 84/84/13
f 85/85/14 87/87/14 82/82/14
f 82/82/14 81/81/14 85/85/14

# Mesh
g pCube24
usemtl initialShadingGroup
f 89/89/1 90/90/1 91/91/1
f 91/91/1 92/92/1 89/89/1
f 93/93/11 89/89/11 92/92/11
f 92/92/11 94/94/11 93/93/11
f 95/95/3 93/93/3 94/94/3
f 94/94/3 96/96/3 95/95/3
f 90/90/12 95/95/12 96/96/12
f 96/96/12 91/91/12 90/90/12
f 92/92/13 91/91/13 96/96/13
f 96/96/13 94/94/13 92/92/13
f 93/93/14 95/95/14 90/90/14
f 90/90/14 89/89/14 93/93/14

# Mesh
g pCube25
usemtl initialShadingGroup
f 97/97/1 98/98/1 99/99/1
f 99/99/1 100/100/1 97/97/1
f 101/101/11 97/97/11 100/100/11
f 100/100/11 102/102/11 101/101/11
f 103/103/3 101/101/3 102/102/3
f 102/102/3 104/104/3 103/103/3
f 98/98/12 103/103/12 104/104/12
f 104/104/12 99/99/12 98/98/12
f 100/100/13 99/99/13 104/104/13
f 104/104/13 102/102/13 100/100/13
f 101/101/14 103/103/14 98/98/14
f 98/98/14 97/97/14 101/101/14
