# Blender v2.92.0 OBJ File: 'bedside table.blend'
# www.blender.org
mtllib bedside table.mtl
o Cube
v 1.000000 1.000000 -1.000000
v 1.000000 -1.100000 -1.000000
v 1.000000 1.000000 1.000000
v 1.000000 -1.100000 1.000000
v -1.000000 1.000000 -1.000000
v -1.000000 -1.100000 -1.000000
v -1.000000 1.000000 1.000000
v -1.000000 -1.100000 1.000000
v -0.891658 -1.000000 1.000000
v -0.891658 -0.991658 1.000000
v -0.891658 -1.000000 -1.000000
v -0.891658 0.900000 1.000000
v -0.891658 0.900000 -1.000000
v -0.891658 0.891658 -1.000000
v 0.908342 0.900000 1.000000
v 0.908342 0.900000 -1.000000
v 0.908342 -1.000000 1.000000
v 0.908342 -1.000000 -1.000000
vt 0.671875 0.825000
vt 0.671875 0.425000
vt 0.828125 0.425000
vt 0.828125 0.825000
vt 0.375000 0.750000
vt 0.387500 0.761457
vt 0.387500 0.986457
vt 0.388543 0.986457
vt 0.375000 1.000000
vt 0.669906 0.425535
vt 0.669906 0.025535
vt 0.826156 0.025535
vt 0.826156 0.425535
vt 0.125000 0.500000
vt 0.375000 0.500000
vt 0.125000 0.750000
vt 0.625000 0.500000
vt 0.625000 0.750000
vt 0.667933 0.034473
vt 0.667933 0.420865
vt 0.659469 0.399934
vt 0.659469 0.053793
vt 0.375000 0.036145
vt 0.375000 0.213855
vt 0.623841 0.213855
vt 0.625000 0.213855
vt 0.625000 0.036145
vt 0.376159 0.036145
vt 0.387500 0.488543
vt 0.612500 0.488543
vt 0.625000 0.536145
vt 0.625000 0.713855
vt 0.875000 0.713855
vt 0.875000 0.536145
vt 0.826476 0.025985
vt 0.834941 0.047653
vt 0.834941 0.405985
vt 0.826477 0.425985
vt 0.375000 0.536145
vt 0.375000 0.713855
vt 0.125000 0.536145
vt 0.125000 0.713855
vt 0.612500 0.761457
vt 0.840565 0.842306
vt 0.828065 0.824767
vt 0.828065 0.426476
vt 0.840565 0.409186
vt 0.672247 0.824168
vt 0.659722 0.804193
vt 0.659722 0.447544
vt 0.658730 0.447544
vt 0.672247 0.425601
vt 0.387500 0.263543
vt 0.375000 0.250000
vn 0.0000 1.0000 0.0000
vn 0.0000 0.0000 1.0000
vn -1.0000 0.0000 0.0000
vn 0.0000 -1.0000 0.0000
vn 1.0000 0.0000 0.0000
vn -0.0000 -0.0000 -1.0000
usemtl Material
s off
f 1/1/1 5/2/1 7/3/1 3/4/1
f 4/5/2 17/6/2 9/7/2 10/8/2 8/9/2
f 8/10/3 7/11/3 5/12/3 6/13/3
f 6/14/4 2/15/4 4/5/4 8/16/4
f 2/15/5 1/17/5 3/18/5 4/5/5
f 6/19/6 5/20/6 14/21/6 11/22/6
f 9/23/5 11/24/5 14/25/5 13/26/5 12/27/5 10/28/5
f 2/15/6 18/29/6 16/30/6 1/17/6
f 16/31/4 15/32/4 12/33/4 13/34/4
f 8/35/2 10/36/2 12/37/2 7/38/2
f 18/39/3 17/40/3 15/32/3 16/31/3
f 11/41/1 9/42/1 17/40/1 18/39/1
f 17/6/2 4/5/2 3/18/2 15/43/2
f 7/44/2 12/45/2 15/46/2 3/47/2
f 1/48/6 16/49/6 13/50/6 14/51/6 5/52/6
f 11/53/6 18/29/6 2/15/6 6/54/6
o Cube.001
v 0.818342 0.347089 -0.817366
v 0.818342 0.347089 0.908647
v -0.801658 0.347089 -0.817366
v -0.801658 0.347089 0.908647
v 0.908342 0.257089 -0.918572
v -0.891658 0.257089 -0.918572
v 0.908342 0.900591 0.909543
v 0.908342 0.622686 0.909543
v -0.891658 0.622686 0.909543
v -0.891658 0.900591 0.909543
v 0.908342 0.622686 -0.918572
v -0.891658 0.622686 -0.918572
v 0.818342 0.622686 -0.817366
v -0.801658 0.622686 -0.817366
v 0.818342 0.622686 0.908647
v -0.801658 0.622686 0.908647
v 0.908342 0.900591 0.947521
v 0.875267 0.867516 0.999220
v 0.875267 0.290164 0.999220
v 0.908342 0.257089 0.947521
v -0.858583 0.867516 0.999220
v -0.891658 0.900591 0.947521
v -0.858583 0.290164 0.999220
v -0.891658 0.257089 0.947521
v 0.818342 -0.283543 -0.817366
v 0.818342 -0.283543 0.908647
v -0.801658 -0.283543 -0.817366
v -0.801658 -0.283543 0.908647
v 0.908342 -0.373543 -0.918572
v -0.891658 -0.373543 -0.918572
v 0.908342 0.269959 0.909543
v 0.908342 -0.007946 0.909543
v -0.891658 -0.007946 0.909543
v -0.891658 0.269959 0.909543
v 0.908342 -0.007946 -0.918572
v -0.891658 -0.007946 -0.918572
v 0.818342 -0.007946 -0.817366
v -0.801658 -0.007946 -0.817366
v 0.818342 -0.007946 0.908647
v -0.801658 -0.007946 0.908647
v 0.908342 0.269959 0.947521
v 0.875267 0.236884 0.999220
v 0.875267 -0.340468 0.999220
v 0.908342 -0.373543 0.947521
v -0.858583 0.236884 0.999220
v -0.891658 0.269959 0.947521
v -0.858583 -0.340468 0.999220
v -0.891658 -0.373543 0.947521
v 0.818342 -0.914175 -0.817366
v 0.818342 -0.914175 0.908647
v -0.801658 -0.914175 -0.817366
v -0.801658 -0.914175 0.908647
v 0.908342 -1.004175 -0.918572
v -0.891658 -1.004175 -0.918572
v 0.908342 -0.360673 0.909543
v 0.908342 -0.638578 0.909543
v -0.891658 -0.638578 0.909543
v -0.891658 -0.360673 0.909543
v 0.908342 -0.638578 -0.918572
v -0.891658 -0.638578 -0.918572
v 0.818342 -0.638578 -0.817366
v -0.801658 -0.638578 -0.817366
v 0.818342 -0.638578 0.908647
v -0.801658 -0.638578 0.908647
v 0.908342 -0.360673 0.947521
v 0.875267 -0.393748 0.999220
v 0.875267 -0.971100 0.999220
v 0.908342 -1.004175 0.947521
v -0.858583 -0.393748 0.999220
v -0.891658 -0.360673 0.947521
v -0.858583 -0.971100 0.999220
v -0.891658 -1.004175 0.947521
vt 0.375000 0.750000
vt 0.375000 1.000000
vt 0.481096 1.000000
vt 0.481096 0.750000
vt 0.375000 0.000000
vt 0.375000 0.250000
vt 0.481096 0.250000
vt 0.481096 0.000000
vt 0.125000 0.500000
vt 0.125000 0.750000
vt 0.375000 0.500000
vt 0.481096 0.500000
vt 0.625000 0.738310
vt 0.862624 0.738310
vt 0.867865 0.743261
vt 0.625000 0.743261
vt 0.375000 0.006739
vt 0.625000 0.006739
vt 0.625000 0.011690
vt 0.507419 0.011690
vt 0.507419 0.250000
vt 0.375000 0.250000
vt 0.387850 0.754594
vt 0.612150 0.754594
vt 0.612150 0.995406
vt 0.387850 0.995406
vt 0.507419 0.500000
vt 0.375000 0.500000
vt 0.125000 0.500000
vt 0.375000 0.743261
vt 0.125000 0.743261
vt 0.375000 0.764873
vt 0.375000 0.985127
vt 0.505646 0.974223
vt 0.505646 0.764873
vt 0.139873 0.750000
vt 0.150885 0.749882
vt 0.150885 0.522609
vt 0.349115 0.525885
vt 0.360127 0.509283
vt 0.139873 0.509283
vt 0.360127 0.750000
vt 0.360127 0.514873
vt 0.349115 0.749882
vt 0.625000 1.000000
vt 0.375000 1.000000
vt 0.625000 0.750000
vt 0.375000 0.750000
vt 0.507419 0.505534
vt 0.507419 0.738310
vt 0.375000 0.750000
vt 0.375000 1.000000
vt 0.481096 1.000000
vt 0.481096 0.750000
vt 0.375000 0.000000
vt 0.375000 0.250000
vt 0.481096 0.250000
vt 0.481096 0.000000
vt 0.125000 0.500000
vt 0.125000 0.750000
vt 0.375000 0.500000
vt 0.481096 0.500000
vt 0.625000 0.738310
vt 0.862624 0.738310
vt 0.867865 0.743261
vt 0.625000 0.743261
vt 0.375000 0.006739
vt 0.625000 0.006739
vt 0.625000 0.011690
vt 0.507419 0.011690
vt 0.507419 0.250000
vt 0.375000 0.250000
vt 0.387850 0.754594
vt 0.612150 0.754594
vt 0.612150 0.995406
vt 0.387850 0.995406
vt 0.507419 0.500000
vt 0.375000 0.500000
vt 0.125000 0.500000
vt 0.375000 0.743261
vt 0.125000 0.743261
vt 0.375000 0.764873
vt 0.375000 0.985127
vt 0.505646 0.974223
vt 0.505646 0.764873
vt 0.139873 0.750000
vt 0.150885 0.749882
vt 0.150885 0.522609
vt 0.349115 0.525885
vt 0.360127 0.509283
vt 0.139873 0.509283
vt 0.360127 0.750000
vt 0.360127 0.514873
vt 0.349115 0.749882
vt 0.625000 1.000000
vt 0.375000 1.000000
vt 0.625000 0.750000
vt 0.375000 0.750000
vt 0.507419 0.505534
vt 0.507419 0.738310
vt 0.375000 0.750000
vt 0.375000 1.000000
vt 0.481096 1.000000
vt 0.481096 0.750000
vt 0.375000 0.000000
vt 0.375000 0.250000
vt 0.481096 0.250000
vt 0.481096 0.000000
vt 0.125000 0.500000
vt 0.125000 0.750000
vt 0.375000 0.500000
vt 0.481096 0.500000
vt 0.625000 0.738310
vt 0.862624 0.738310
vt 0.867865 0.743261
vt 0.625000 0.743261
vt 0.375000 0.006739
vt 0.625000 0.006739
vt 0.625000 0.011690
vt 0.507419 0.011690
vt 0.507419 0.250000
vt 0.375000 0.250000
vt 0.387850 0.754594
vt 0.612150 0.754594
vt 0.612150 0.995406
vt 0.387850 0.995406
vt 0.507419 0.500000
vt 0.375000 0.500000
vt 0.125000 0.500000
vt 0.375000 0.743261
vt 0.125000 0.743261
vt 0.375000 0.764873
vt 0.375000 0.985127
vt 0.505646 0.974223
vt 0.505646 0.764873
vt 0.139873 0.750000
vt 0.150885 0.749882
vt 0.150885 0.522609
vt 0.349115 0.525885
vt 0.360127 0.509283
vt 0.139873 0.509283
vt 0.360127 0.750000
vt 0.360127 0.514873
vt 0.349115 0.749882
vt 0.625000 1.000000
vt 0.375000 1.000000
vt 0.625000 0.750000
vt 0.375000 0.750000
vt 0.507419 0.505534
vt 0.507419 0.738310
vn 0.0000 0.0000 -1.0000
vn 1.0000 0.0000 0.0000
vn 0.0000 1.0000 0.0000
vn -1.0000 0.0000 0.0000
vn 0.0000 -0.0000 1.0000
vn 0.0000 -1.0000 0.0000
vn -0.8424 0.0000 0.5389
vn 0.8424 0.0000 0.5389
vn 0.0000 0.8424 0.5389
vn 0.0000 -0.8424 0.5389
usemtl Material
s off
f 20/55/7 22/56/7 34/57/7 33/58/7
f 22/59/8 21/60/8 32/61/8 34/62/8
f 21/63/9 22/64/9 20/55/9 19/65/9
f 19/65/10 20/55/10 33/58/10 31/66/10
f 21/60/11 19/65/11 31/66/11 32/61/11
f 25/67/9 28/68/9 40/69/9 35/70/9
f 42/71/10 40/72/10 28/73/10 27/74/10 30/75/10 24/76/10
f 37/77/11 36/78/11 39/79/11 41/80/11
f 24/76/7 30/75/7 29/81/7 23/82/7
f 24/83/12 23/82/12 38/84/12 42/85/12
f 26/86/7 27/87/7 28/88/7 25/89/7
f 27/90/9 34/91/9 32/92/9 31/93/9 29/94/9 30/95/9
f 34/91/9 27/90/9 26/96/9 29/97/9 31/93/9 33/98/9
f 41/80/13 39/79/13 40/99/13 42/100/13
f 36/78/14 37/77/14 38/84/14 35/70/14
f 35/101/15 40/99/15 39/79/15 36/78/15
f 42/100/16 38/102/16 37/77/16 41/80/16
f 23/82/8 29/103/8 26/104/8 25/67/8 35/70/8 38/84/8
f 44/105/7 46/106/7 58/107/7 57/108/7
f 46/109/8 45/110/8 56/111/8 58/112/8
f 45/113/9 46/114/9 44/105/9 43/115/9
f 43/115/10 44/105/10 57/108/10 55/116/10
f 45/110/11 43/115/11 55/116/11 56/111/11
f 49/117/9 52/118/9 64/119/9 59/120/9
f 66/121/10 64/122/10 52/123/10 51/124/10 54/125/10 48/126/10
f 61/127/11 60/128/11 63/129/11 65/130/11
f 48/126/7 54/125/7 53/131/7 47/132/7
f 48/133/12 47/132/12 62/134/12 66/135/12
f 50/136/7 51/137/7 52/138/7 49/139/7
f 51/140/9 58/141/9 56/142/9 55/143/9 53/144/9 54/145/9
f 58/141/9 51/140/9 50/146/9 53/147/9 55/143/9 57/148/9
f 65/130/13 63/129/13 64/149/13 66/150/13
f 60/128/14 61/127/14 62/134/14 59/120/14
f 59/151/15 64/149/15 63/129/15 60/128/15
f 66/150/16 62/152/16 61/127/16 65/130/16
f 47/132/8 53/153/8 50/154/8 49/117/8 59/120/8 62/134/8
f 68/155/7 70/156/7 82/157/7 81/158/7
f 70/159/8 69/160/8 80/161/8 82/162/8
f 69/163/9 70/164/9 68/155/9 67/165/9
f 67/165/10 68/155/10 81/158/10 79/166/10
f 69/160/11 67/165/11 79/166/11 80/161/11
f 73/167/9 76/168/9 88/169/9 83/170/9
f 90/171/10 88/172/10 76/173/10 75/174/10 78/175/10 72/176/10
f 85/177/11 84/178/11 87/179/11 89/180/11
f 72/176/7 78/175/7 77/181/7 71/182/7
f 72/183/12 71/182/12 86/184/12 90/185/12
f 74/186/7 75/187/7 76/188/7 73/189/7
f 75/190/9 82/191/9 80/192/9 79/193/9 77/194/9 78/195/9
f 82/191/9 75/190/9 74/196/9 77/197/9 79/193/9 81/198/9
f 89/180/13 87/179/13 88/199/13 90/200/13
f 84/178/14 85/177/14 86/184/14 83/170/14
f 83/201/15 88/199/15 87/179/15 84/178/15
f 90/200/16 86/202/16 85/177/16 89/180/16
f 71/182/8 77/203/8 74/204/8 73/167/8 83/170/8 86/184/8
o Cube.002
v 0.908342 0.900000 -0.971148
v 0.908342 -1.000000 -0.971148
v 0.908342 0.900000 -0.925357
v 0.908342 -1.000000 -0.925357
v -0.891658 0.900000 -0.971148
v -0.891658 -1.000000 -0.971148
v -0.891658 0.900000 -0.925357
v -0.891658 -1.000000 -0.925357
vt 0.625000 0.500000
vt 0.875000 0.500000
vt 0.875000 0.750000
vt 0.625000 0.750000
vt 0.375000 0.750000
vt 0.625000 1.000000
vt 0.375000 1.000000
vt 0.375000 0.000000
vt 0.625000 0.000000
vt 0.625000 0.250000
vt 0.375000 0.250000
vt 0.125000 0.500000
vt 0.375000 0.500000
vt 0.125000 0.750000
vn 0.0000 1.0000 0.0000
vn 0.0000 0.0000 1.0000
vn -1.0000 0.0000 0.0000
vn 0.0000 -1.0000 0.0000
vn 1.0000 0.0000 0.0000
vn 0.0000 0.0000 -1.0000
usemtl Material
s off
f 91/205/17 95/206/17 97/207/17 93/208/17
f 94/209/18 93/208/18 97/210/18 98/211/18
f 98/212/19 97/213/19 95/214/19 96/215/19
f 96/216/20 92/217/20 94/209/20 98/218/20
f 92/217/21 91/205/21 93/208/21 94/209/21
f 96/215/22 95/214/22 91/205/22 92/217/22
o Cube.003
v -0.192387 0.672097 0.979084
v -0.192387 0.568526 0.979084
v -0.192387 0.672097 1.093091
v -0.192387 0.568526 1.093091
v 0.193551 0.672097 0.979084
v 0.193551 0.568526 0.979084
v 0.193551 0.672097 1.093091
v 0.193551 0.568526 1.093091
v 0.146591 0.568526 1.051459
v 0.146591 0.568526 0.979084
v 0.146591 0.672097 1.051459
v 0.146591 0.672097 0.979084
v -0.145428 0.672097 1.051459
v -0.145428 0.672097 0.979084
v -0.145428 0.568526 1.051459
v -0.145428 0.568526 0.979084
v -0.192387 0.026845 0.979084
v -0.192387 -0.076727 0.979084
v -0.192387 0.026845 1.093091
v -0.192387 -0.076727 1.093091
v 0.193551 0.026845 0.979084
v 0.193551 -0.076727 0.979084
v 0.193551 0.026845 1.093091
v 0.193551 -0.076727 1.093091
v 0.146591 -0.076727 1.051459
v 0.146591 -0.076727 0.979084
v 0.146591 0.026845 1.051459
v 0.146591 0.026845 0.979084
v -0.145428 0.026845 1.051459
v -0.145428 0.026845 0.979084
v -0.145428 -0.076727 1.051459
v -0.145428 -0.076727 0.979084
v -0.192387 -0.618408 0.979084
v -0.192387 -0.721980 0.979084
v -0.192387 -0.618408 1.093091
v -0.192387 -0.721980 1.093091
v 0.193551 -0.618408 0.979084
v 0.193551 -0.721980 0.979084
v 0.193551 -0.618408 1.093091
v 0.193551 -0.721980 1.093091
v 0.146591 -0.721980 1.051459
v 0.146591 -0.721980 0.979084
v 0.146591 -0.618408 1.051459
v 0.146591 -0.618408 0.979084
v -0.145428 -0.618408 1.051459
v -0.145428 -0.618408 0.979084
v -0.145428 -0.721980 1.051459
v -0.145428 -0.721980 0.979084
vt 0.625000 0.500000
vt 0.625000 0.750000
vt 0.875000 0.750000
vt 0.875000 0.500000
vt 0.844581 0.500000
vt 0.844581 0.658707
vt 0.655419 0.658707
vt 0.655419 0.500000
vt 0.375000 0.750000
vt 0.375000 1.000000
vt 0.625000 1.000000
vt 0.375000 0.000000
vt 0.375000 0.250000
vt 0.625000 0.250000
vt 0.625000 0.000000
vt 0.125000 0.500000
vt 0.125000 0.750000
vt 0.375000 0.500000
vt 0.344581 0.500000
vt 0.344581 0.658707
vt 0.155419 0.658707
vt 0.155419 0.500000
vt 0.375000 0.280419
vt 0.625000 0.280419
vt 0.589338 0.000000
vt 0.589338 0.108558
vt 0.407413 0.108558
vt 0.407413 0.000000
vt 0.407413 1.000000
vt 0.407413 0.750000
vt 0.589338 0.750000
vt 0.589338 1.000000
vt 0.375000 0.469581
vt 0.625000 0.469581
vt 0.407413 0.641442
vt 0.589338 0.641442
vt 0.625000 0.500000
vt 0.625000 0.750000
vt 0.875000 0.750000
vt 0.875000 0.500000
vt 0.844581 0.500000
vt 0.844581 0.658707
vt 0.655419 0.658707
vt 0.655419 0.500000
vt 0.375000 0.750000
vt 0.375000 1.000000
vt 0.625000 1.000000
vt 0.375000 0.000000
vt 0.375000 0.250000
vt 0.625000 0.250000
vt 0.625000 0.000000
vt 0.125000 0.500000
vt 0.125000 0.750000
vt 0.375000 0.500000
vt 0.344581 0.500000
vt 0.344581 0.658707
vt 0.155419 0.658707
vt 0.155419 0.500000
vt 0.375000 0.280419
vt 0.625000 0.280419
vt 0.589338 0.000000
vt 0.589338 0.108558
vt 0.407413 0.108558
vt 0.407413 0.000000
vt 0.407413 1.000000
vt 0.407413 0.750000
vt 0.589338 0.750000
vt 0.589338 1.000000
vt 0.375000 0.469581
vt 0.625000 0.469581
vt 0.407413 0.641442
vt 0.589338 0.641442
vt 0.625000 0.500000
vt 0.625000 0.750000
vt 0.875000 0.750000
vt 0.875000 0.500000
vt 0.844581 0.500000
vt 0.844581 0.658707
vt 0.655419 0.658707
vt 0.655419 0.500000
vt 0.375000 0.750000
vt 0.375000 1.000000
vt 0.625000 1.000000
vt 0.375000 0.000000
vt 0.375000 0.250000
vt 0.625000 0.250000
vt 0.625000 0.000000
vt 0.125000 0.500000
vt 0.125000 0.750000
vt 0.375000 0.500000
vt 0.344581 0.500000
vt 0.344581 0.658707
vt 0.155419 0.658707
vt 0.155419 0.500000
vt 0.375000 0.280419
vt 0.625000 0.280419
vt 0.589338 0.000000
vt 0.589338 0.108558
vt 0.407413 0.108558
vt 0.407413 0.000000
vt 0.407413 1.000000
vt 0.407413 0.750000
vt 0.589338 0.750000
vt 0.589338 1.000000
vt 0.375000 0.469581
vt 0.625000 0.469581
vt 0.407413 0.641442
vt 0.589338 0.641442
vn 0.0000 1.0000 -0.0000
vn 0.0000 0.0000 1.0000
vn 1.0000 0.0000 0.0000
vn 0.0000 -1.0000 -0.0000
vn -1.0000 0.0000 0.0000
vn 0.0000 0.0000 -1.0000
usemtl Материал
s off
f 99/219/23 101/220/23 105/221/23 103/222/23 110/223/23 109/224/23 111/225/23 112/226/23
f 102/227/24 106/228/24 105/229/24 101/220/24
f 106/230/25 104/231/25 103/232/25 105/233/25
f 104/234/26 106/235/26 102/227/26 100/236/26 114/237/26 113/238/26 107/239/26 108/240/26
f 100/236/27 102/227/27 101/220/27 99/219/27
f 104/231/28 108/241/28 110/242/28 103/232/28
f 109/243/27 110/244/27 108/245/27 107/246/27
f 107/247/28 113/248/28 111/249/28 109/250/28
f 114/251/28 100/236/28 99/219/28 112/252/28
f 113/248/25 114/253/25 112/254/25 111/249/25
f 115/255/23 117/256/23 121/257/23 119/258/23 126/259/23 125/260/23 127/261/23 128/262/23
f 118/263/24 122/264/24 121/265/24 117/256/24
f 122/266/25 120/267/25 119/268/25 121/269/25
f 120/270/26 122/271/26 118/263/26 116/272/26 130/273/26 129/274/26 123/275/26 124/276/26
f 116/272/27 118/263/27 117/256/27 115/255/27
f 120/267/28 124/277/28 126/278/28 119/268/28
f 125/279/27 126/280/27 124/281/27 123/282/27
f 123/283/28 129/284/28 127/285/28 125/286/28
f 130/287/28 116/272/28 115/255/28 128/288/28
f 129/284/25 130/289/25 128/290/25 127/285/25
f 131/291/23 133/292/23 137/293/23 135/294/23 142/295/23 141/296/23 143/297/23 144/298/23
f 134/299/24 138/300/24 137/301/24 133/292/24
f 138/302/25 136/303/25 135/304/25 137/305/25
f 136/306/26 138/307/26 134/299/26 132/308/26 146/309/26 145/310/26 139/311/26 140/312/26
f 132/308/27 134/299/27 133/292/27 131/291/27
f 136/303/28 140/313/28 142/314/28 135/304/28
f 141/315/27 142/316/27 140/317/27 139/318/27
f 139/319/28 145/320/28 143/321/28 141/322/28
f 146/323/28 132/308/28 131/291/28 144/324/28
f 145/320/25 146/325/25 144/326/25 143/321/25
